<?xml version="1.0" standalone="no"?>
<!DOCTYPE svg PUBLIC "-//W3C//DTD SVG 20010904//EN"
 "http://www.w3.org/TR/2001/REC-SVG-20010904/DTD/svg10.dtd">
<svg version="1.0" xmlns="http://www.w3.org/2000/svg"
 width="260.000000pt" height="260.000000pt" viewBox="0 0 260.000000 260.000000"
 preserveAspectRatio="xMidYMid meet">
<metadata>
Created by potrace 1.11, written by Peter Selinger 2001-2013
</metadata>
<g transform="translate(0.000000,260.000000) scale(0.100000,-0.100000)"
fill="#000000" stroke="none">
<path d="M297 2051 c-186 -198 -286 -443 -293 -721 -6 -264 55 -471 201 -676
44 -61 152 -174 167 -174 14 0 9 21 -11 48 -10 15 -37 63 -59 108 -87 173
-123 286 -152 474 -10 59 -6 352 5 410 34 182 110 386 200 535 26 42 31 65 16
65 -5 0 -38 -31 -74 -69z"/>
<path d="M2220 2116 c0 -2 27 -55 59 -118 81 -155 138 -307 155 -414 4 -20 8
-46 11 -58 14 -70 21 -287 11 -346 -2 -14 -7 -47 -10 -75 -17 -146 -90 -363
-168 -500 -82 -143 -74 -160 25 -55 135 144 242 349 272 520 4 19 10 58 15 85
5 28 7 111 5 185 -5 215 -63 401 -176 569 -71 106 -199 239 -199 207z"/>
<path d="M1210 2047 c-3 -3 -24 -7 -47 -10 -22 -4 -69 -16 -104 -27 -255 -86
-447 -309 -498 -580 -14 -76 -7 -242 13 -318 73 -273 282 -475 567 -549 55
-14 264 -12 324 3 177 44 317 132 425 266 40 49 100 155 121 213 69 188 55
404 -37 590 -93 191 -283 342 -494 394 -67 16 -258 29 -270 18z"/>
<path d="M426 1973 c-93 -94 -191 -264 -226 -393 -30 -107 -38 -181 -36 -310
5 -210 53 -363 168 -533 42 -62 131 -157 147 -157 6 0 -11 35 -36 78 -190 320
-229 668 -116 1027 20 61 90 211 133 283 17 28 27 52 22 52 -5 0 -30 -21 -56
-47z"/>
<path d="M2151 1953 c86 -141 151 -316 175 -476 11 -75 11 -259 -1 -337 -28
-187 -82 -332 -195 -522 -27 -47 -14 -49 31 -4 52 51 77 82 125 157 109 168
154 337 150 559 -5 208 -54 365 -168 532 -42 63 -131 158 -148 158 -5 0 9 -30
31 -67z"/>
<path d="M549 1912 c-169 -197 -242 -387 -241 -622 1 -170 37 -302 125 -452
36 -60 125 -168 139 -168 3 0 -16 36 -43 81 -129 216 -184 496 -139 713 6 29
13 65 16 81 14 79 79 229 149 343 26 42 23 57 -6 24z"/>
<path d="M2075 1839 c200 -338 198 -740 -4 -1082 -18 -31 -38 -60 -42 -63 -5
-3 -9 -12 -9 -20 0 -24 86 72 137 154 201 321 176 746 -62 1035 -31 37 -60 67
-65 67 -5 0 15 -41 45 -91z"/>
</g>
</svg>
